<svg version="1.1"
	 viewBox="0 13 128 102"
	 xmlns="http://www.w3.org/2000/svg">
	<g shape-rendering="auto">
		<path d="m 123,64 c 0,26 -37,47 -70,47 C 19,111 1,102 2,64 2,26 19,17 52,17 c 33,0 70,21 70,47 z" fill="#69c" />
		<path d="m50.934 13c-12.868 0-24.583 2.5021-33.809 7.121-9.0529 4.5324-16.822 11.888-17.11 22.046-0.010328 0.19285-0.016582 0.38674-0.013808 0.58272v42.5c-5e-11 10.462 7.8984 18.01 17.124 22.628 9.2257 4.6189 20.941 7.1215 33.809 7.1215 20.357 0 38.906-5.0108 52.96-13.72 14.053-8.7092 24.107-21.833 24.107-37.28 0-15.447-10.054-28.571-24.107-37.28-14.053-8.7092-32.603-13.72-52.96-13.72z M50.934 30c17.518 0 33.257 4.5028 44.024 11.176 10.767 6.6728 16.065 14.799 16.065 22.824 0 8.025-5.2975 16.152-16.065 22.824-10.767 6.6728-26.507 11.176-44.024 11.176-10.574 0-20.08-2.2548-26.216-5.3269-6.1361-3.0721-7.7389-6.1488-7.7389-7.4231v-21.319c1.2824 0.61489 2.6148 1.1933 3.9935 1.7426 11.03 4.3946 25.21 6.8266 40.851 6.8266 4.7352 0.06706 8.6099-3.7581 8.6099-8.5 0-4.7419-3.8747-8.5671-8.6099-8.5-13.815 0-26.3-2.3255-34.574-5.6218-4.1366-1.6482-7.1767-3.5646-8.7513-5.048s-1.5193-2.0323-1.5193-2.0802c0-1.2743 1.6033-4.3516 7.7394-7.4237s15.642-5.3263 26.216-5.3263z" fill="#036" />
	</g>
</svg>
