<svg width="256" height="234" version="1.1" viewBox="0 0 256 234" xmlns="http://www.w3.org/2000/svg">
	<symbol id="logo_endecoder" viewBox="0 0 256 234">
		<path d="m94.213 6.1279e-6c-52.032 0-94.213 32.657-94.213 72.941v138.53c26.534 13.727 59.062 21.812 94.213 21.812 89.353 0 161.79-52.222 161.79-116.64 0-64.419-72.435-116.64-161.79-116.64zm103.04 116.64c0 32.088-46.133 58.1-103.04 58.1-12.311 0-24.11-1.2258-35.054-3.4589v-30.62c10.836 3.3652 22.665 5.2204 35.054 5.2204 31.548 0 59.47-12.007 76.569-30.439l-42.597-38.995c-3.8559 6.1431-17.603 10.687-33.973 10.687-19.36 0-35.054-6.3554-35.054-14.195 0-7.8395 15.694-14.245 35.054-14.297 56.908-0.15399 103.04 25.909 103.04 57.997z"/>
	</symbol>
	<use xlink:href="#logo_endecoder"/>
</svg>
